STARTFONT 2.1
FONT -Monotype-Rockwell-Medium-I-Normal--10-100-72-72-P-49-ISO8859-1
SIZE 10 72 72
FONTBOUNDINGBOX 15 14 -3 -3

STARTPROPERTIES 22
FOUNDRY "Monotype"
FAMILY_NAME "Rockwell"
WEIGHT_NAME "Medium"
SLANT "I"
SETWIDTH_NAME "Normal"
ADD_STYLE_NAME ""
PIXEL_SIZE 10
POINT_SIZE 100
RESOLUTION_X 72
RESOLUTION_Y 72
SPACING "P"
AVERAGE_WIDTH 49
CHARSET_REGISTRY "ISO8859"
CHARSET_ENCODING "1"
FULL_NAME "Rockwell-Italic"
COPYRIGHT "Copyright (c) 1991 The Monotype Corporation plc."
WEIGHT 10
X_HEIGHT 5
QUAD_WIDTH 6
DEFAULT_CHAR 32
FONT_DESCENT 3
FONT_ASCENT 9
ENDPROPERTIES

CHARS 190

STARTCHAR space
ENCODING 32
SWIDTH 250 0
DWIDTH 3 0
BBX 1 1 0 0
BITMAP
00
ENDCHAR

STARTCHAR exclam
ENCODING 33
SWIDTH 281 0
DWIDTH 3 0
BBX 3 8 0 0
BITMAP
60
60
40
40
40
40
00
80
ENDCHAR

STARTCHAR quotedbl
ENCODING 34
SWIDTH 417 0
DWIDTH 4 0
BBX 3 3 2 5
BITMAP
A0
A0
A0
ENDCHAR

STARTCHAR numbersign
ENCODING 35
SWIDTH 668 0
DWIDTH 7 0
BBX 6 8 1 0
BITMAP
28
68
FC
48
48
FC
50
90
ENDCHAR

STARTCHAR dollar
ENCODING 36
SWIDTH 479 0
DWIDTH 5 0
BBX 5 9 0 -1
BITMAP
30
68
60
60
30
30
D0
E0
40
ENDCHAR

STARTCHAR percent
ENCODING 37
SWIDTH 1000 0
DWIDTH 10 0
BBX 8 8 1 0
BITMAP
63
A6
AC
A8
D6
2A
4A
86
ENDCHAR

STARTCHAR ampersand
ENCODING 38
SWIDTH 625 0
DWIDTH 6 0
BBX 6 8 1 0
BITMAP
30
28
30
60
E4
98
90
68
ENDCHAR

STARTCHAR quoteright
ENCODING 39
SWIDTH 281 0
DWIDTH 3 0
BBX 2 4 1 4
BITMAP
40
C0
80
80
ENDCHAR

STARTCHAR parenleft
ENCODING 40
SWIDTH 375 0
DWIDTH 4 0
BBX 4 11 1 -3
BITMAP
10
20
40
80
80
80
80
80
80
80
40
ENDCHAR

STARTCHAR parenright
ENCODING 41
SWIDTH 375 0
DWIDTH 4 0
BBX 4 11 0 -3
BITMAP
20
20
10
10
10
10
10
20
20
40
80
ENDCHAR

STARTCHAR asterisk
ENCODING 42
SWIDTH 521 0
DWIDTH 5 0
BBX 5 4 1 3
BITMAP
20
F8
40
F0
ENDCHAR

STARTCHAR plus
ENCODING 43
SWIDTH 667 0
DWIDTH 7 0
BBX 5 5 1 0
BITMAP
20
20
F8
20
20
ENDCHAR

STARTCHAR comma
ENCODING 44
SWIDTH 281 0
DWIDTH 3 0
BBX 2 3 0 -1
BITMAP
40
C0
80
ENDCHAR

STARTCHAR minus
ENCODING 45
SWIDTH 667 0
DWIDTH 7 0
BBX 5 1 1 3
BITMAP
F8
ENDCHAR

STARTCHAR period
ENCODING 46
SWIDTH 281 0
DWIDTH 3 0
BBX 1 1 0 0
BITMAP
80
ENDCHAR

STARTCHAR slash
ENCODING 47
SWIDTH 438 0
DWIDTH 4 0
BBX 5 11 0 -3
BITMAP
08
08
10
10
20
20
20
40
40
C0
80
ENDCHAR

STARTCHAR zero
ENCODING 48
SWIDTH 531 0
DWIDTH 5 0
BBX 5 8 1 0
BITMAP
30
48
48
88
90
90
90
60
ENDCHAR

STARTCHAR one
ENCODING 49
SWIDTH 531 0
DWIDTH 5 0
BBX 3 8 1 0
BITMAP
60
20
20
20
40
40
40
E0
ENDCHAR

STARTCHAR two
ENCODING 50
SWIDTH 531 0
DWIDTH 5 0
BBX 5 8 0 0
BITMAP
30
48
48
10
20
50
90
F0
ENDCHAR

STARTCHAR three
ENCODING 51
SWIDTH 531 0
DWIDTH 5 0
BBX 5 8 1 0
BITMAP
30
48
08
10
30
90
90
60
ENDCHAR

STARTCHAR four
ENCODING 52
SWIDTH 531 0
DWIDTH 5 0
BBX 5 8 0 0
BITMAP
18
30
30
50
90
F8
20
30
ENDCHAR

STARTCHAR five
ENCODING 53
SWIDTH 531 0
DWIDTH 5 0
BBX 5 8 1 0
BITMAP
78
48
40
70
50
90
90
60
ENDCHAR

STARTCHAR six
ENCODING 54
SWIDTH 531 0
DWIDTH 5 0
BBX 5 8 1 0
BITMAP
30
48
80
E0
90
90
90
60
ENDCHAR

STARTCHAR seven
ENCODING 55
SWIDTH 531 0
DWIDTH 5 0
BBX 5 8 1 0
BITMAP
78
90
10
20
20
40
40
E0
ENDCHAR

STARTCHAR eight
ENCODING 56
SWIDTH 531 0
DWIDTH 5 0
BBX 5 8 1 0
BITMAP
30
48
48
50
F0
90
90
60
ENDCHAR

STARTCHAR nine
ENCODING 57
SWIDTH 531 0
DWIDTH 5 0
BBX 5 8 1 0
BITMAP
30
48
48
58
70
10
90
E0
ENDCHAR

STARTCHAR colon
ENCODING 58
SWIDTH 281 0
DWIDTH 3 0
BBX 2 5 0 0
BITMAP
40
00
00
00
80
ENDCHAR

STARTCHAR semicolon
ENCODING 59
SWIDTH 281 0
DWIDTH 3 0
BBX 3 6 0 -1
BITMAP
60
00
00
00
C0
80
ENDCHAR

STARTCHAR less
ENCODING 60
SWIDTH 667 0
DWIDTH 7 0
BBX 5 5 1 1
BITMAP
08
70
80
70
08
ENDCHAR

STARTCHAR equal
ENCODING 61
SWIDTH 667 0
DWIDTH 7 0
BBX 5 3 1 2
BITMAP
F8
00
F8
ENDCHAR

STARTCHAR greater
ENCODING 62
SWIDTH 667 0
DWIDTH 7 0
BBX 5 5 1 1
BITMAP
C0
70
08
70
C0
ENDCHAR

STARTCHAR question
ENCODING 63
SWIDTH 458 0
DWIDTH 5 0
BBX 4 8 1 0
BITMAP
70
90
10
10
60
40
00
80
ENDCHAR

STARTCHAR at
ENCODING 64
SWIDTH 1010 0
DWIDTH 10 0
BBX 9 11 1 -3
BITMAP
1E00
2100
5E80
A680
A480
A480
A500
9E80
4080
6100
1E00
ENDCHAR

STARTCHAR A
ENCODING 65
SWIDTH 646 0
DWIDTH 6 0
BBX 7 8 0 0
BITMAP
1C
14
14
14
24
3C
44
EE
ENDCHAR

STARTCHAR B
ENCODING 66
SWIDTH 563 0
DWIDTH 6 0
BBX 6 8 0 0
BITMAP
78
24
24
78
48
48
48
F0
ENDCHAR

STARTCHAR C
ENCODING 67
SWIDTH 719 0
DWIDTH 7 0
BBX 7 8 1 0
BITMAP
3E
62
C0
80
80
80
C4
78
ENDCHAR

STARTCHAR D
ENCODING 68
SWIDTH 708 0
DWIDTH 7 0
BBX 7 8 0 0
BITMAP
7C
26
22
42
42
46
44
F8
ENDCHAR

STARTCHAR E
ENCODING 69
SWIDTH 573 0
DWIDTH 6 0
BBX 7 8 0 0
BITMAP
7E
24
20
78
40
40
4C
F8
ENDCHAR

STARTCHAR F
ENCODING 70
SWIDTH 521 0
DWIDTH 5 0
BBX 7 8 0 0
BITMAP
7E
24
20
78
40
40
40
E0
ENDCHAR

STARTCHAR G
ENCODING 71
SWIDTH 781 0
DWIDTH 8 0
BBX 7 8 1 0
BITMAP
3E
62
40
80
8E
84
C4
78
ENDCHAR

STARTCHAR H
ENCODING 72
SWIDTH 677 0
DWIDTH 7 0
BBX 7 8 0 0
BITMAP
76
22
26
7C
44
44
44
CC
ENDCHAR

STARTCHAR I
ENCODING 73
SWIDTH 292 0
DWIDTH 3 0
BBX 4 8 0 0
BITMAP
70
20
20
40
40
40
40
C0
ENDCHAR

STARTCHAR J
ENCODING 74
SWIDTH 292 0
DWIDTH 3 0
BBX 5 11 0 -3
BITMAP
18
10
10
10
30
20
20
20
20
40
C0
ENDCHAR

STARTCHAR K
ENCODING 75
SWIDTH 594 0
DWIDTH 6 0
BBX 7 8 0 0
BITMAP
76
24
28
70
50
50
48
DC
ENDCHAR

STARTCHAR L
ENCODING 76
SWIDTH 490 0
DWIDTH 5 0
BBX 5 8 0 0
BITMAP
70
20
20
20
40
48
48
F8
ENDCHAR

STARTCHAR M
ENCODING 77
SWIDTH 833 0
DWIDTH 8 0
BBX 9 8 0 0
BITMAP
7180
3300
3300
5500
5500
5B00
5A00
D700
ENDCHAR

STARTCHAR N
ENCODING 78
SWIDTH 698 0
DWIDTH 7 0
BBX 8 8 0 0
BITMAP
73
32
32
5A
4E
4C
4C
C4
ENDCHAR

STARTCHAR O
ENCODING 79
SWIDTH 781 0
DWIDTH 8 0
BBX 7 8 1 0
BITMAP
3C
66
C2
82
82
84
CC
78
ENDCHAR

STARTCHAR P
ENCODING 80
SWIDTH 542 0
DWIDTH 5 0
BBX 6 8 0 0
BITMAP
78
24
24
24
78
40
40
E0
ENDCHAR

STARTCHAR Q
ENCODING 81
SWIDTH 781 0
DWIDTH 8 0
BBX 7 9 1 -1
BITMAP
3C
66
42
82
82
84
CC
78
98
ENDCHAR

STARTCHAR R
ENCODING 82
SWIDTH 583 0
DWIDTH 6 0
BBX 6 8 0 0
BITMAP
78
24
24
24
78
50
48
CC
ENDCHAR

STARTCHAR S
ENCODING 83
SWIDTH 521 0
DWIDTH 5 0
BBX 6 8 0 0
BITMAP
3C
48
40
20
10
08
90
F0
ENDCHAR

STARTCHAR T
ENCODING 84
SWIDTH 583 0
DWIDTH 6 0
BBX 6 8 1 0
BITMAP
FC
94
A4
20
20
20
20
60
ENDCHAR

STARTCHAR U
ENCODING 85
SWIDTH 635 0
DWIDTH 6 0
BBX 6 8 1 0
BITMAP
EC
48
48
88
88
88
90
70
ENDCHAR

STARTCHAR V
ENCODING 86
SWIDTH 677 0
DWIDTH 7 0
BBX 7 8 1 0
BITMAP
CE
44
48
58
50
60
60
40
ENDCHAR

STARTCHAR W
ENCODING 87
SWIDTH 990 0
DWIDTH 10 0
BBX 10 8 1 0
BITMAP
CCC0
4C80
5D00
5500
7600
6600
6400
4400
ENDCHAR

STARTCHAR X
ENCODING 88
SWIDTH 635 0
DWIDTH 6 0
BBX 7 8 0 0
BITMAP
36
24
18
18
10
28
48
DC
ENDCHAR

STARTCHAR Y
ENCODING 89
SWIDTH 573 0
DWIDTH 6 0
BBX 6 8 1 0
BITMAP
CC
48
50
60
20
40
40
E0
ENDCHAR

STARTCHAR Z
ENCODING 90
SWIDTH 563 0
DWIDTH 6 0
BBX 6 8 0 0
BITMAP
3C
48
18
10
20
60
48
F8
ENDCHAR

STARTCHAR bracketleft
ENCODING 91
SWIDTH 313 0
DWIDTH 3 0
BBX 4 11 0 -3
BITMAP
30
20
20
40
40
40
40
40
80
80
C0
ENDCHAR

STARTCHAR backslash
ENCODING 92
SWIDTH 438 0
DWIDTH 5 0
BBX 2 8 2 0
BITMAP
80
80
80
80
80
80
40
40
ENDCHAR

STARTCHAR bracketright
ENCODING 93
SWIDTH 313 0
DWIDTH 3 0
BBX 4 11 0 -3
BITMAP
30
10
10
10
20
20
20
20
20
40
C0
ENDCHAR

STARTCHAR asciicircum
ENCODING 94
SWIDTH 427 0
DWIDTH 4 0
BBX 4 4 0 4
BITMAP
20
60
50
90
ENDCHAR

STARTCHAR underscore
ENCODING 95
SWIDTH 500 0
DWIDTH 5 0
BBX 5 1 0 -3
BITMAP
F8
ENDCHAR

STARTCHAR quoteleft
ENCODING 96
SWIDTH 281 0
DWIDTH 3 0
BBX 2 3 1 5
BITMAP
40
80
80
ENDCHAR

STARTCHAR a
ENCODING 97
SWIDTH 531 0
DWIDTH 5 0
BBX 4 5 0 0
BITMAP
70
10
70
90
F0
ENDCHAR

STARTCHAR b
ENCODING 98
SWIDTH 615 0
DWIDTH 6 0
BBX 6 8 0 0
BITMAP
60
20
20
58
64
44
4C
F8
ENDCHAR

STARTCHAR c
ENCODING 99
SWIDTH 500 0
DWIDTH 5 0
BBX 5 5 0 0
BITMAP
78
C8
80
90
60
ENDCHAR

STARTCHAR d
ENCODING 100
SWIDTH 604 0
DWIDTH 6 0
BBX 6 8 1 0
BITMAP
0C
04
08
78
C8
88
98
78
ENDCHAR

STARTCHAR e
ENCODING 101
SWIDTH 552 0
DWIDTH 6 0
BBX 5 5 1 0
BITMAP
70
C8
F8
80
70
ENDCHAR

STARTCHAR f
ENCODING 102
SWIDTH 281 0
DWIDTH 3 0
BBX 4 8 0 0
BITMAP
30
20
20
60
40
40
40
C0
ENDCHAR

STARTCHAR g
ENCODING 103
SWIDTH 604 0
DWIDTH 6 0
BBX 7 8 0 -3
BITMAP
36
4C
48
48
78
08
90
70
ENDCHAR

STARTCHAR h
ENCODING 104
SWIDTH 552 0
DWIDTH 6 0
BBX 5 8 0 0
BITMAP
60
20
20
78
48
48
48
D8
ENDCHAR

STARTCHAR i
ENCODING 105
SWIDTH 281 0
DWIDTH 3 0
BBX 3 8 0 0
BITMAP
20
00
00
60
40
40
40
C0
ENDCHAR

STARTCHAR j
ENCODING 106
SWIDTH 281 0
DWIDTH 3 0
BBX 4 11 0 -3
BITMAP
10
00
00
30
20
20
20
20
40
40
C0
ENDCHAR

STARTCHAR k
ENCODING 107
SWIDTH 521 0
DWIDTH 5 0
BBX 6 8 0 0
BITMAP
60
20
20
5C
58
60
70
D8
ENDCHAR

STARTCHAR l
ENCODING 108
SWIDTH 281 0
DWIDTH 3 0
BBX 3 8 0 0
BITMAP
60
20
20
40
40
40
40
C0
ENDCHAR

STARTCHAR m
ENCODING 109
SWIDTH 844 0
DWIDTH 8 0
BBX 8 5 0 0
BITMAP
7F
49
49
49
DB
ENDCHAR

STARTCHAR n
ENCODING 110
SWIDTH 552 0
DWIDTH 6 0
BBX 5 5 0 0
BITMAP
78
48
48
48
D8
ENDCHAR

STARTCHAR o
ENCODING 111
SWIDTH 563 0
DWIDTH 6 0
BBX 5 5 1 0
BITMAP
70
C8
88
98
70
ENDCHAR

STARTCHAR p
ENCODING 112
SWIDTH 604 0
DWIDTH 6 0
BBX 6 8 0 -3
BITMAP
7C
24
24
64
78
40
40
C0
ENDCHAR

STARTCHAR q
ENCODING 113
SWIDTH 604 0
DWIDTH 6 0
BBX 6 8 1 -3
BITMAP
7C
88
88
98
70
10
10
38
ENDCHAR

STARTCHAR r
ENCODING 114
SWIDTH 396 0
DWIDTH 4 0
BBX 5 5 0 0
BITMAP
78
60
40
40
C0
ENDCHAR

STARTCHAR s
ENCODING 115
SWIDTH 427 0
DWIDTH 4 0
BBX 5 5 0 0
BITMAP
78
40
60
10
F0
ENDCHAR

STARTCHAR t
ENCODING 116
SWIDTH 292 0
DWIDTH 3 0
BBX 2 7 1 0
BITMAP
40
40
C0
80
80
80
C0
ENDCHAR

STARTCHAR u
ENCODING 117
SWIDTH 552 0
DWIDTH 6 0
BBX 5 5 1 0
BITMAP
D8
90
90
90
F0
ENDCHAR

STARTCHAR v
ENCODING 118
SWIDTH 479 0
DWIDTH 5 0
BBX 5 5 1 0
BITMAP
D8
50
60
60
40
ENDCHAR

STARTCHAR w
ENCODING 119
SWIDTH 740 0
DWIDTH 7 0
BBX 7 5 1 0
BITMAP
DE
52
74
78
58
ENDCHAR

STARTCHAR x
ENCODING 120
SWIDTH 510 0
DWIDTH 5 0
BBX 6 5 0 0
BITMAP
6C
38
30
50
D8
ENDCHAR

STARTCHAR y
ENCODING 121
SWIDTH 510 0
DWIDTH 5 0
BBX 6 8 0 -3
BITMAP
6C
28
28
30
30
20
40
C0
ENDCHAR

STARTCHAR z
ENCODING 122
SWIDTH 417 0
DWIDTH 4 0
BBX 5 5 0 0
BITMAP
78
50
20
50
F0
ENDCHAR

STARTCHAR braceleft
ENCODING 123
SWIDTH 333 0
DWIDTH 3 0
BBX 4 11 1 -3
BITMAP
30
20
20
40
40
40
C0
40
40
80
C0
ENDCHAR

STARTCHAR bar
ENCODING 124
SWIDTH 527 0
DWIDTH 5 0
BBX 3 11 1 -3
BITMAP
20
20
40
40
40
40
40
40
80
80
80
ENDCHAR

STARTCHAR braceright
ENCODING 125
SWIDTH 333 0
DWIDTH 3 0
BBX 4 11 0 -3
BITMAP
20
30
20
20
30
20
20
40
40
40
C0
ENDCHAR

STARTCHAR asciitilde
ENCODING 126
SWIDTH 583 0
DWIDTH 6 0
BBX 5 2 1 4
BITMAP
E8
B8
ENDCHAR

STARTCHAR exclamdown
ENCODING 161
SWIDTH 281 0
DWIDTH 3 0
BBX 3 8 0 -3
BITMAP
60
00
40
40
40
C0
80
80
ENDCHAR

STARTCHAR cent
ENCODING 162
SWIDTH 500 0
DWIDTH 5 0
BBX 5 11 0 -3
BITMAP
10
10
10
78
68
A0
B0
E0
40
80
80
ENDCHAR

STARTCHAR sterling
ENCODING 163
SWIDTH 458 0
DWIDTH 5 0
BBX 5 8 0 0
BITMAP
38
28
40
40
F0
40
D0
B0
ENDCHAR

STARTCHAR currency
ENCODING 164
SWIDTH 667 0
DWIDTH 7 0
BBX 5 5 1 1
BITMAP
F8
88
88
88
F8
ENDCHAR

STARTCHAR yen
ENCODING 165
SWIDTH 573 0
DWIDTH 6 0
BBX 7 8 0 0
BITMAP
6E
44
FC
30
FC
20
20
60
ENDCHAR

STARTCHAR brokenbar
ENCODING 166
SWIDTH 527 0
DWIDTH 5 0
BBX 3 11 1 -3
BITMAP
20
20
20
40
40
40
00
40
80
80
80
ENDCHAR

STARTCHAR section
ENCODING 167
SWIDTH 448 0
DWIDTH 4 0
BBX 5 11 0 -3
BITMAP
30
48
40
B0
90
90
58
20
10
90
60
ENDCHAR

STARTCHAR dieresis
ENCODING 168
SWIDTH 333 0
DWIDTH 3 0
BBX 3 1 1 7
BITMAP
A0
ENDCHAR

STARTCHAR copyright
ENCODING 169
SWIDTH 740 0
DWIDTH 7 0
BBX 8 8 0 0
BITMAP
3C
42
99
A5
A1
A5
5A
3C
ENDCHAR

STARTCHAR ordfeminine
ENCODING 170
SWIDTH 344 0
DWIDTH 3 0
BBX 3 3 1 5
BITMAP
60
E0
E0
ENDCHAR

STARTCHAR guillemotleft
ENCODING 171
SWIDTH 458 0
DWIDTH 5 0
BBX 5 5 0 0
BITMAP
50
48
28
50
B0
ENDCHAR

STARTCHAR logicalnot
ENCODING 172
SWIDTH 667 0
DWIDTH 7 0
BBX 6 3 0 2
BITMAP
FC
04
04
ENDCHAR

STARTCHAR hyphen
ENCODING 173
SWIDTH 385 0
DWIDTH 4 0
BBX 3 1 1 2
BITMAP
E0
ENDCHAR

STARTCHAR registered
ENCODING 174
SWIDTH 740 0
DWIDTH 7 0
BBX 7 8 0 0
BITMAP
38
44
BA
AA
BA
AA
44
38
ENDCHAR

STARTCHAR macron
ENCODING 175
SWIDTH 333 0
DWIDTH 3 0
BBX 3 1 1 6
BITMAP
E0
ENDCHAR

STARTCHAR degree
ENCODING 176
SWIDTH 396 0
DWIDTH 4 0
BBX 4 4 1 4
BITMAP
60
90
90
60
ENDCHAR

STARTCHAR plusminus
ENCODING 177
SWIDTH 667 0
DWIDTH 7 0
BBX 5 7 1 1
BITMAP
20
20
F8
20
20
00
F8
ENDCHAR

STARTCHAR twosuperior
ENCODING 178
SWIDTH 323 0
DWIDTH 3 0
BBX 3 4 -3 4
BITMAP
60
60
40
E0
ENDCHAR

STARTCHAR threesuperior
ENCODING 179
SWIDTH 323 0
DWIDTH 3 0
BBX 3 4 -3 4
BITMAP
E0
60
20
C0
ENDCHAR

STARTCHAR acute
ENCODING 180
SWIDTH 333 0
DWIDTH 3 0
BBX 3 1 2 7
BITMAP
E0
ENDCHAR

STARTCHAR mu
ENCODING 181
SWIDTH 552 0
DWIDTH 6 0
BBX 6 8 0 -3
BITMAP
44
48
48
48
78
80
80
80
ENDCHAR

STARTCHAR paragraph
ENCODING 182
SWIDTH 542 0
DWIDTH 5 0
BBX 6 11 1 -3
BITMAP
7C
E8
E8
E8
70
50
50
50
50
50
E0
ENDCHAR

STARTCHAR periodcentered
ENCODING 183
SWIDTH 292 0
DWIDTH 3 0
BBX 1 1 1 3
BITMAP
80
ENDCHAR

STARTCHAR cedilla
ENCODING 184
SWIDTH 333 0
DWIDTH 3 0
BBX 2 2 1 -3
BITMAP
40
C0
ENDCHAR

STARTCHAR onesuperior
ENCODING 185
SWIDTH 323 0
DWIDTH 3 0
BBX 2 4 -3 4
BITMAP
40
40
C0
C0
ENDCHAR

STARTCHAR ordmasculine
ENCODING 186
SWIDTH 365 0
DWIDTH 4 0
BBX 3 4 1 4
BITMAP
60
A0
A0
E0
ENDCHAR

STARTCHAR guillemotright
ENCODING 187
SWIDTH 458 0
DWIDTH 5 0
BBX 5 5 0 0
BITMAP
78
50
A0
A0
50
ENDCHAR

STARTCHAR onequarter
ENCODING 188
SWIDTH 1000 0
DWIDTH 10 0
BBX 9 8 1 0
BITMAP
4300
4600
CC00
C800
1080
2180
4380
8100
ENDCHAR

STARTCHAR onehalf
ENCODING 189
SWIDTH 1000 0
DWIDTH 10 0
BBX 8 8 1 0
BITMAP
43
46
CC
C8
13
23
42
87
ENDCHAR

STARTCHAR threequarters
ENCODING 190
SWIDTH 1000 0
DWIDTH 10 0
BBX 10 8 2 0
BITMAP
E180
6300
2600
C400
0840
10C0
21C0
4080
ENDCHAR

STARTCHAR questiondown
ENCODING 191
SWIDTH 458 0
DWIDTH 5 0
BBX 4 8 0 -3
BITMAP
10
00
20
60
80
80
90
E0
ENDCHAR

STARTCHAR Agrave
ENCODING 192
SWIDTH 646 0
DWIDTH 6 0
BBX 7 9 0 0
BITMAP
08
1C
14
14
14
24
3C
44
EE
ENDCHAR

STARTCHAR Aacute
ENCODING 193
SWIDTH 646 0
DWIDTH 6 0
BBX 7 9 0 0
BITMAP
0E
1C
14
14
14
24
3C
44
EE
ENDCHAR

STARTCHAR Acircumflex
ENCODING 194
SWIDTH 646 0
DWIDTH 6 0
BBX 7 10 0 0
BITMAP
0C
14
1C
14
14
14
24
3C
44
EE
ENDCHAR

STARTCHAR Atilde
ENCODING 195
SWIDTH 646 0
DWIDTH 6 0
BBX 7 10 0 0
BITMAP
0E
0A
1C
14
14
14
24
3C
44
EE
ENDCHAR

STARTCHAR Adieresis
ENCODING 196
SWIDTH 646 0
DWIDTH 6 0
BBX 7 9 0 0
BITMAP
14
1C
14
14
14
24
3C
44
EE
ENDCHAR

STARTCHAR Aring
ENCODING 197
SWIDTH 646 0
DWIDTH 6 0
BBX 7 11 0 0
BITMAP
1C
14
1C
1C
14
14
14
24
3C
44
EE
ENDCHAR

STARTCHAR AE
ENCODING 198
SWIDTH 969 0
DWIDTH 10 0
BBX 11 8 0 0
BITMAP
0FE0
0E40
0A00
1F80
2400
2400
44C0
EF80
ENDCHAR

STARTCHAR Ccedilla
ENCODING 199
SWIDTH 719 0
DWIDTH 7 0
BBX 7 10 1 -2
BITMAP
3E
62
C0
80
80
80
C4
78
10
30
ENDCHAR

STARTCHAR Egrave
ENCODING 200
SWIDTH 573 0
DWIDTH 6 0
BBX 7 9 0 0
BITMAP
08
7E
24
20
78
40
40
4C
F8
ENDCHAR

STARTCHAR Eacute
ENCODING 201
SWIDTH 573 0
DWIDTH 6 0
BBX 7 9 0 0
BITMAP
18
7E
24
20
78
40
40
4C
F8
ENDCHAR

STARTCHAR Ecircumflex
ENCODING 202
SWIDTH 573 0
DWIDTH 6 0
BBX 7 10 0 0
BITMAP
18
28
7E
24
20
78
40
40
4C
F8
ENDCHAR

STARTCHAR Edieresis
ENCODING 203
SWIDTH 573 0
DWIDTH 6 0
BBX 7 9 0 0
BITMAP
14
7E
24
20
78
40
40
4C
F8
ENDCHAR

STARTCHAR Igrave
ENCODING 204
SWIDTH 292 0
DWIDTH 3 0
BBX 4 9 0 0
BITMAP
20
70
20
20
40
40
40
40
C0
ENDCHAR

STARTCHAR Iacute
ENCODING 205
SWIDTH 292 0
DWIDTH 3 0
BBX 5 9 0 0
BITMAP
38
70
20
20
40
40
40
40
C0
ENDCHAR

STARTCHAR Icircumflex
ENCODING 206
SWIDTH 292 0
DWIDTH 3 0
BBX 4 10 0 0
BITMAP
30
50
70
20
20
40
40
40
40
C0
ENDCHAR

STARTCHAR Idieresis
ENCODING 207
SWIDTH 292 0
DWIDTH 3 0
BBX 4 9 0 0
BITMAP
50
70
20
20
40
40
40
40
C0
ENDCHAR

STARTCHAR Eth
ENCODING 208
SWIDTH 708 0
DWIDTH 7 0
BBX 7 8 0 0
BITMAP
7C
26
22
22
F2
46
44
F8
ENDCHAR

STARTCHAR Ntilde
ENCODING 209
SWIDTH 698 0
DWIDTH 7 0
BBX 8 10 0 0
BITMAP
1C
14
73
32
32
5A
4E
4C
4C
C4
ENDCHAR

STARTCHAR Ograve
ENCODING 210
SWIDTH 781 0
DWIDTH 8 0
BBX 7 9 1 0
BITMAP
08
3C
66
C2
82
82
84
CC
78
ENDCHAR

STARTCHAR Oacute
ENCODING 211
SWIDTH 781 0
DWIDTH 8 0
BBX 7 9 1 0
BITMAP
0E
3C
66
C2
82
82
84
CC
78
ENDCHAR

STARTCHAR Ocircumflex
ENCODING 212
SWIDTH 781 0
DWIDTH 8 0
BBX 7 10 1 0
BITMAP
0C
14
3C
66
C2
82
82
84
CC
78
ENDCHAR

STARTCHAR Otilde
ENCODING 213
SWIDTH 781 0
DWIDTH 8 0
BBX 7 10 1 0
BITMAP
1C
14
3C
66
C2
82
82
84
CC
78
ENDCHAR

STARTCHAR Odieresis
ENCODING 214
SWIDTH 781 0
DWIDTH 8 0
BBX 7 9 1 0
BITMAP
14
3C
66
C2
82
82
84
CC
78
ENDCHAR

STARTCHAR multiply
ENCODING 215
SWIDTH 668 0
DWIDTH 7 0
BBX 5 5 1 1
BITMAP
88
50
20
50
88
ENDCHAR

STARTCHAR Oslash
ENCODING 216
SWIDTH 781 0
DWIDTH 8 0
BBX 8 8 1 0
BITMAP
3E
67
C6
8A
92
B4
EC
78
ENDCHAR

STARTCHAR Ugrave
ENCODING 217
SWIDTH 635 0
DWIDTH 6 0
BBX 6 9 1 0
BITMAP
18
EC
48
48
88
88
88
90
70
ENDCHAR

STARTCHAR Uacute
ENCODING 218
SWIDTH 635 0
DWIDTH 6 0
BBX 6 9 1 0
BITMAP
1C
EC
48
48
88
88
88
90
70
ENDCHAR

STARTCHAR Ucircumflex
ENCODING 219
SWIDTH 635 0
DWIDTH 6 0
BBX 6 10 1 0
BITMAP
18
28
EC
48
48
88
88
88
90
70
ENDCHAR

STARTCHAR Udieresis
ENCODING 220
SWIDTH 635 0
DWIDTH 6 0
BBX 6 9 1 0
BITMAP
28
EC
48
48
88
88
88
90
70
ENDCHAR

STARTCHAR Yacute
ENCODING 221
SWIDTH 573 0
DWIDTH 6 0
BBX 6 9 1 0
BITMAP
1C
CC
48
50
60
20
40
40
E0
ENDCHAR

STARTCHAR Thorn
ENCODING 222
SWIDTH 542 0
DWIDTH 5 0
BBX 6 8 0 0
BITMAP
70
20
38
2C
44
48
78
C0
ENDCHAR

STARTCHAR germandbls
ENCODING 223
SWIDTH 615 0
DWIDTH 6 0
BBX 6 8 0 0
BITMAP
38
24
24
44
5C
44
44
D8
ENDCHAR

STARTCHAR agrave
ENCODING 224
SWIDTH 531 0
DWIDTH 5 0
BBX 5 6 0 0
BITMAP
18
70
10
70
90
F0
ENDCHAR

STARTCHAR aacute
ENCODING 225
SWIDTH 531 0
DWIDTH 5 0
BBX 5 6 0 0
BITMAP
38
70
10
70
90
F0
ENDCHAR

STARTCHAR acircumflex
ENCODING 226
SWIDTH 531 0
DWIDTH 5 0
BBX 5 7 0 0
BITMAP
18
28
70
10
70
90
F0
ENDCHAR

STARTCHAR atilde
ENCODING 227
SWIDTH 531 0
DWIDTH 5 0
BBX 5 7 0 0
BITMAP
38
28
70
10
70
90
F0
ENDCHAR

STARTCHAR adieresis
ENCODING 228
SWIDTH 531 0
DWIDTH 5 0
BBX 5 6 0 0
BITMAP
28
70
10
70
90
F0
ENDCHAR

STARTCHAR aring
ENCODING 229
SWIDTH 531 0
DWIDTH 5 0
BBX 5 8 0 0
BITMAP
38
28
38
70
10
70
90
F0
ENDCHAR

STARTCHAR ae
ENCODING 230
SWIDTH 865 0
DWIDTH 9 0
BBX 8 5 1 0
BITMAP
76
09
7F
90
EE
ENDCHAR

STARTCHAR ccedilla
ENCODING 231
SWIDTH 500 0
DWIDTH 5 0
BBX 5 7 0 -2
BITMAP
78
C8
80
90
60
20
60
ENDCHAR

STARTCHAR egrave
ENCODING 232
SWIDTH 552 0
DWIDTH 6 0
BBX 5 6 1 0
BITMAP
18
70
C8
F8
80
70
ENDCHAR

STARTCHAR eacute
ENCODING 233
SWIDTH 552 0
DWIDTH 6 0
BBX 5 6 1 0
BITMAP
38
70
C8
F8
80
70
ENDCHAR

STARTCHAR ecircumflex
ENCODING 234
SWIDTH 552 0
DWIDTH 6 0
BBX 5 7 1 0
BITMAP
18
28
70
C8
F8
80
70
ENDCHAR

STARTCHAR edieresis
ENCODING 235
SWIDTH 552 0
DWIDTH 6 0
BBX 5 6 1 0
BITMAP
28
70
C8
F8
80
70
ENDCHAR

STARTCHAR igrave
ENCODING 236
SWIDTH 281 0
DWIDTH 3 0
BBX 4 6 0 0
BITMAP
70
60
40
40
40
C0
ENDCHAR

STARTCHAR iacute
ENCODING 237
SWIDTH 281 0
DWIDTH 3 0
BBX 4 6 0 0
BITMAP
70
60
40
40
40
C0
ENDCHAR

STARTCHAR icircumflex
ENCODING 238
SWIDTH 281 0
DWIDTH 3 0
BBX 4 7 0 0
BITMAP
30
50
60
40
40
40
C0
ENDCHAR

STARTCHAR idieresis
ENCODING 239
SWIDTH 281 0
DWIDTH 3 0
BBX 4 6 0 0
BITMAP
50
60
40
40
40
C0
ENDCHAR

STARTCHAR eth
ENCODING 240
SWIDTH 635 0
DWIDTH 6 0
BBX 5 8 1 0
BITMAP
28
10
28
78
88
88
90
70
ENDCHAR

STARTCHAR ntilde
ENCODING 241
SWIDTH 552 0
DWIDTH 6 0
BBX 5 7 0 0
BITMAP
38
28
78
48
48
48
D8
ENDCHAR

STARTCHAR ograve
ENCODING 242
SWIDTH 563 0
DWIDTH 6 0
BBX 5 6 1 0
BITMAP
18
70
C8
88
98
70
ENDCHAR

STARTCHAR oacute
ENCODING 243
SWIDTH 563 0
DWIDTH 6 0
BBX 6 6 1 0
BITMAP
1C
70
C8
88
98
70
ENDCHAR

STARTCHAR ocircumflex
ENCODING 244
SWIDTH 563 0
DWIDTH 6 0
BBX 5 7 1 0
BITMAP
18
28
70
C8
88
98
70
ENDCHAR

STARTCHAR otilde
ENCODING 245
SWIDTH 563 0
DWIDTH 6 0
BBX 5 7 1 0
BITMAP
38
28
70
C8
88
98
70
ENDCHAR

STARTCHAR odieresis
ENCODING 246
SWIDTH 563 0
DWIDTH 6 0
BBX 5 6 1 0
BITMAP
28
70
C8
88
98
70
ENDCHAR

STARTCHAR divide
ENCODING 247
SWIDTH 668 0
DWIDTH 7 0
BBX 5 5 1 1
BITMAP
20
00
F8
00
20
ENDCHAR

STARTCHAR oslash
ENCODING 248
SWIDTH 563 0
DWIDTH 6 0
BBX 5 5 1 0
BITMAP
78
D8
A8
D8
F0
ENDCHAR

STARTCHAR ugrave
ENCODING 249
SWIDTH 552 0
DWIDTH 6 0
BBX 5 6 1 0
BITMAP
38
D8
90
90
90
F0
ENDCHAR

STARTCHAR uacute
ENCODING 250
SWIDTH 552 0
DWIDTH 6 0
BBX 5 6 1 0
BITMAP
38
D8
90
90
90
F0
ENDCHAR

STARTCHAR ucircumflex
ENCODING 251
SWIDTH 552 0
DWIDTH 6 0
BBX 5 7 1 0
BITMAP
30
50
D8
90
90
90
F0
ENDCHAR

STARTCHAR udieresis
ENCODING 252
SWIDTH 552 0
DWIDTH 6 0
BBX 5 6 1 0
BITMAP
28
D8
90
90
90
F0
ENDCHAR

STARTCHAR yacute
ENCODING 253
SWIDTH 510 0
DWIDTH 5 0
BBX 6 9 0 -3
BITMAP
1C
6C
28
28
30
30
20
40
C0
ENDCHAR

STARTCHAR thorn
ENCODING 254
SWIDTH 604 0
DWIDTH 6 0
BBX 6 11 0 -3
BITMAP
20
20
20
3C
24
44
64
78
40
40
C0
ENDCHAR

STARTCHAR ydieresis
ENCODING 255
SWIDTH 510 0
DWIDTH 5 0
BBX 6 9 0 -3
BITMAP
14
6C
28
28
30
30
20
40
C0
ENDCHAR
ENDFONT
